<?xml version="1.0" encoding="iso-8859-1"?>
<!-- Uploaded to: SVG Repo, www.svgrepo.com, Generator: SVG Repo Mixer Tools -->
<svg fill="#000000" height="800px" width="800px" version="1.1" id="Layer_1" xmlns="http://www.w3.org/2000/svg" xmlns:xlink="http://www.w3.org/1999/xlink" 
	 viewBox="0 0 512.004 512.004" xml:space="preserve">
<g>
	<g>
		<g>
			<path d="M102.403,430.935c-5.76,0-11.085,1.911-15.36,5.137c-4.83-6.426-11.861-11.093-19.968-12.877
				c-3.285-10.342-12.988-17.86-24.405-17.86c-11.529,0-21.291,7.654-24.491,18.142c-10.513,3.191-18.176,12.971-18.176,24.508
				c0,14.123,11.486,25.617,25.6,25.617c4.71,0,8.533-3.823,8.533-8.533c0-4.71-3.823-8.533-8.533-8.533
				c-4.702,0-8.533-3.84-8.533-8.55c0-4.565,3.601-8.303,8.107-8.525c4.838,0.162,8.96-3.669,8.96-8.525
				c0-4.702,3.831-8.533,8.533-8.533c4.702,0,8.533,3.831,8.533,8.533c0,4.71,3.823,8.533,8.533,8.533
				c9.412,0,17.067,7.654,17.067,17.067c0,4.71,3.823,8.533,8.533,8.533c4.71,0,8.533-3.823,8.533-8.533
				c0-4.702,3.831-8.533,8.533-8.533c4.702,0,8.533,3.831,8.533,8.533c0,4.71,3.823,8.533,8.533,8.533s8.533-3.823,8.533-8.533
				C128.003,442.421,116.518,430.935,102.403,430.935z"/>
			<path d="M136.537,328.535c-5.76,0-11.085,1.911-15.36,5.137c-4.83-6.426-11.861-11.093-19.968-12.877
				c-3.285-10.342-12.988-17.86-24.405-17.86c-14.114,0-25.591,11.477-25.6,25.591v0.008c0,4.71,3.823,8.533,8.533,8.533
				s8.533-3.823,8.533-8.533c0-4.702,3.831-8.533,8.533-8.533c4.702,0,8.533,3.831,8.533,8.533c0,4.71,3.823,8.533,8.533,8.533
				c9.412,0,17.067,7.654,17.067,17.067c0,4.71,3.823,8.533,8.533,8.533s8.533-3.823,8.533-8.533c0-4.702,3.831-8.533,8.533-8.533
				c4.702,0,8.533,3.831,8.533,8.533c0,4.71,3.823,8.533,8.533,8.533c4.71,0,8.533-3.823,8.533-8.533
				C162.137,340.021,150.651,328.535,136.537,328.535z"/>
			<path d="M384.003,379.735c-5.76,0-11.085,1.911-15.36,5.137c-4.83-6.426-11.861-11.093-19.968-12.877
				c-3.285-10.342-12.988-17.86-24.405-17.86c-14.114,0-25.591,11.477-25.6,25.591v0.009c0,4.71,3.823,8.533,8.533,8.533
				s8.533-3.823,8.533-8.533c0-4.702,3.831-8.533,8.533-8.533c4.702,0,8.533,3.831,8.533,8.533c0,4.71,3.823,8.533,8.533,8.533
				c9.412,0,17.067,7.654,17.067,17.067c0,4.71,3.823,8.533,8.533,8.533s8.533-3.823,8.533-8.533c0-4.702,3.831-8.533,8.533-8.533
				c4.702,0,8.533,3.831,8.533,8.533c0,4.71,3.823,8.533,8.533,8.533s8.533-3.823,8.533-8.533
				C409.603,391.221,398.118,379.735,384.003,379.735z"/>
			<path d="M247.47,405.335c-5.76,0-11.085,1.911-15.36,5.137c-4.83-6.426-11.861-11.093-19.968-12.877
				c-3.285-10.342-12.988-17.86-24.405-17.86c-14.114,0-25.591,11.477-25.6,25.591v0.009c0,4.71,3.823,8.533,8.533,8.533
				s8.533-3.823,8.533-8.533c0-4.702,3.831-8.533,8.533-8.533c4.702,0,8.533,3.831,8.533,8.533c0,4.71,3.823,8.533,8.533,8.533
				c9.412,0,17.067,7.654,17.067,17.067c0,4.71,3.823,8.533,8.533,8.533s8.533-3.823,8.533-8.533c0-4.702,3.831-8.533,8.533-8.533
				c4.702,0,8.533,3.831,8.533,8.533c0,4.71,3.823,8.533,8.533,8.533c4.71,0,8.533-3.823,8.533-8.533
				C273.07,416.821,261.584,405.335,247.47,405.335z"/>
			<path d="M507.924,423.656c-23.346-14.296-43.582-52.041-59.983-94.813c-0.183-0.881-0.507-1.728-0.957-2.513
				c-6.761-17.874-12.855-36.554-18.229-54.719c49.441-15.627,83.248-61.183,83.248-113.743
				c0-65.877-53.589-119.467-119.467-119.467c-56.537,0-104.575,39.346-116.554,93.393c-13.648-9.748-26.861-25.677-36.282-38.94
				c-4.443-6.258-8.043-11.923-10.444-16.063c-1.835-3.166-5.47-4.804-9.054-4.087c-0.897,0.179-1.74,0.496-2.508,0.927
				c-1.633,0.914-2.908,2.353-3.647,4.075c-0.304,0.707-0.534,1.454-0.638,2.244c-0.236,1.768-6.232,42.661-57.688,43.758
				c-16.427-39.087-23.65-69.443-23.814-70.162c-0.502-2.156-1.805-3.982-3.568-5.164c-1.057-0.71-2.28-1.188-3.596-1.367
				c-0.105-0.015-0.208-0.008-0.313-0.019c-3.381-0.368-6.61,1.328-8.266,4.287c-0.02,0.035-0.046,0.065-0.065,0.101
				c-1.414,2.593-2.817,5.153-4.213,7.695c-0.567,1.031-1.125,2.042-1.686,3.06c-0.778,1.412-1.554,2.818-2.326,4.213
				c-0.726,1.312-1.448,2.613-2.165,3.902c-0.58,1.044-1.157,2.079-1.734,3.113c-0.805,1.443-1.609,2.886-2.402,4.301
				c-0.35,0.625-0.697,1.24-1.046,1.862c-1.843,3.282-3.656,6.494-5.434,9.625c-0.213,0.374-0.427,0.754-0.639,1.128
				c-0.88,1.547-1.747,3.065-2.611,4.575c-0.376,0.657-0.752,1.314-1.126,1.967c-0.847,1.477-1.689,2.942-2.521,4.383
				c-0.328,0.569-0.654,1.131-0.982,1.697c-1.565,2.707-3.103,5.35-4.614,7.934c-0.339,0.58-0.681,1.167-1.019,1.743
				c-0.71,1.211-1.409,2.395-2.107,3.579c-0.516,0.875-1.031,1.747-1.544,2.612c-0.637,1.075-1.272,2.146-1.898,3.199
				c-0.81,1.36-1.614,2.704-2.415,4.039c-0.625,1.042-1.243,2.07-1.858,3.089c-0.805,1.335-1.608,2.663-2.404,3.974
				c-0.408,0.671-0.812,1.336-1.216,1.997c-1.032,1.692-2.059,3.371-3.076,5.02c-0.085,0.137-0.172,0.28-0.256,0.417
				c-1.216,1.972-2.421,3.911-3.615,5.822c-0.106,0.17-0.212,0.338-0.318,0.508c-3.711,5.931-7.313,11.568-10.8,16.896
				c-0.02,0.031-0.035,0.064-0.055,0.095c-31.138,47.591-43.138,55.485-44.605,56.33c-3.985,1.553-6.255,5.896-5.129,10.129
				c1.212,4.54,5.837,7.245,10.436,6.059c4.26-1.131,17.587-9.08,49.841-57.465c8.739,3.981,16.418,9.949,22.458,17.501
				l21.248,26.547c1.613,2.031,4.07,3.209,6.656,3.209c2.594,0,5.052-1.178,6.665-3.209l21.248-26.547
				c6.366-7.959,14.561-14.156,23.888-18.124c25.168,45.518,61.631,92.384,112.394,117.889c1.229,0.614,2.534,0.905,3.823,0.905
				c3.123,0,6.135-1.724,7.637-4.702c2.116-4.207,0.41-9.344-3.797-11.46c-50.414-25.324-86.236-74.876-110.287-121.273
				l16.216,13.84c13.705,11.708,29.21,20.847,46.089,27.179l14.182,5.316c18.509,6.938,34.978,17.544,48.956,31.522l11.759,11.759
				c1.604,1.613,3.78,2.5,6.033,2.5c0.205,0,0.41-0.009,0.606-0.017c2.466-0.179,4.736-1.417,6.221-3.396
				c15.778-21.018,37.12-37.018,61.73-46.242l8.011-3.004c7.604,33.914,20.38,84.285,37.892,130.693
				c-7.497,12.299-15.974,18.487-25.858,18.864c-27.742,1.186-61.995-42.155-72.917-58.889c-1.954-2.987-5.572-4.463-9.037-3.661
				c-3.482,0.794-6.101,3.669-6.571,7.202c-0.23,1.715-5.862,40.226-53.12,43.554c-3.712-14.225-7.501-20.582-7.979-21.35
				c-1.425-2.287-3.857-3.772-6.554-3.994c-2.714-0.256-5.342,0.853-7.117,2.893c-4.915,5.632-8.678,5.862-11.093,5.538
				c-12.39-1.621-27.767-24.064-34.551-37.82c-1.408-2.859-4.292-4.693-7.475-4.762c-3.098-0.043-6.127,1.63-7.663,4.42
				c-7.757,14.131-16.341,21.052-26.249,21.171c-0.094,0.009-0.179,0.009-0.273,0.009c-26.581,0-59.196-46.174-69.547-64.017
				c-1.835-3.166-5.487-4.813-9.054-4.087c-3.584,0.717-6.315,3.627-6.792,7.245c-0.239,1.792-6.391,43.785-59.81,43.785
				c-4.71,0-8.533,3.823-8.533,8.533s3.823,8.533,8.533,8.533c42.982,0,62.234-23.04,70.613-40.235
				c14.916,21.641,44.322,57.933,75.051,57.301c12.57-0.145,23.62-6.118,32.973-17.809c8.371,13.303,23.211,32.375,40.542,34.654
				c4.378,0.572,10.155,0.247,16.29-3.081c1.152,3.473,2.432,7.979,3.661,13.645c0.853,3.925,4.326,6.724,8.337,6.724
				c43.785,0,62.942-23.91,71.074-41.19c15.275,19.789,45.363,52.77,76.271,52.77c0.538,0,1.084-0.009,1.621-0.026
				c12.476-0.476,23.423-6.227,32.691-17.13c16.819,40.194,37.373,74.966,61.358,89.656c1.391,0.853,2.927,1.254,4.446,1.254
				c2.867,0,5.675-1.451,7.287-4.079C513.207,431.37,511.944,426.122,507.924,423.656z M291.784,139.786
				c8.602-48.503,50.816-84.318,100.753-84.318c56.465,0,102.4,45.935,102.4,102.4c0,44.885-28.766,83.823-70.878,97.348
				c-0.817-2.928-1.614-5.829-2.39-8.702c-11.41-42.318-18.412-77.874-20.25-87.56c-0.316-1.677-0.477-2.578-0.48-2.599
				c-0.094-0.517-0.25-1.01-0.432-1.491c-0.664-1.769-1.885-3.27-3.484-4.257c-0.677-0.419-1.419-0.747-2.211-0.967
				c-0.295-0.081-0.593-0.13-0.891-0.179c-0.082-0.013-0.163-0.038-0.246-0.049c-0.233-0.031-0.466-0.035-0.699-0.047
				c-0.147-0.008-0.293-0.03-0.44-0.03c-0.015,0-0.029,0.002-0.044,0.002c-0.102,0.001-0.201,0.012-0.303,0.016
				c-0.261,0.011-0.52,0.031-0.778,0.065c-0.125,0.017-0.247,0.038-0.371,0.06c-0.243,0.044-0.483,0.099-0.721,0.163
				c-0.112,0.03-0.224,0.056-0.334,0.091c-0.327,0.103-0.65,0.221-0.964,0.363c-0.086,0.039-0.167,0.088-0.252,0.13
				c-0.23,0.113-0.457,0.234-0.677,0.368c-0.128,0.078-0.251,0.162-0.375,0.247c-0.173,0.118-0.34,0.243-0.505,0.375
				c-0.122,0.097-0.243,0.193-0.36,0.297c-0.196,0.175-0.381,0.362-0.562,0.556c-0.059,0.064-0.127,0.117-0.184,0.182
				c-1.416,1.622-2.734,2.785-3.955,3.627c-2.223,1.531-4.118,1.975-5.642,2.005c-0.545,0.01-1.043-0.031-1.494-0.091
				c-7.945-1.04-17.118-10.641-24.469-21.023c-4.11-5.809-7.653-11.862-10.086-16.799c-0.9-1.827-2.405-3.228-4.203-4.025
				c-1.014-0.451-2.12-0.715-3.269-0.743c-0.79-0.009-1.569,0.09-2.317,0.286c-2.242,0.583-4.203,2.047-5.349,4.14
				c-0.461,0.84-0.925,1.65-1.392,2.44c-0.065,0.11-0.131,0.217-0.196,0.326c-0.396,0.662-0.794,1.303-1.194,1.928
				c-0.088,0.138-0.176,0.278-0.264,0.414c-0.454,0.699-0.911,1.378-1.371,2.031c-0.066,0.093-0.131,0.179-0.197,0.27
				c-0.261,0.365-0.524,0.712-0.786,1.062c-0.123,0.164-0.245,0.337-0.369,0.498c-0.147,0.192-0.294,0.38-0.441,0.566
				c-0.371,0.469-0.743,0.925-1.117,1.366c-0.087,0.102-0.174,0.211-0.261,0.312c-0.463,0.535-0.93,1.046-1.399,1.538
				c-0.097,0.102-0.194,0.199-0.291,0.299c-0.456,0.467-0.913,0.92-1.375,1.346c-0.022,0.02-0.043,0.042-0.065,0.061
				c-4.067,3.74-8.37,5.882-12.958,6.506c-0.849,0.115-1.703,0.196-2.572,0.206c-0.028,0.003-0.055,0.001-0.082,0.003h-0.188
				c-1.893,0-3.818-0.241-5.762-0.683C292.621,140.016,292.2,139.907,291.784,139.786z M125.512,185.723l-14.583,18.219
				l-14.575-18.219c-7.187-8.986-16.181-16.209-26.385-21.268c11.401-17.86,24.807-40.122,40.546-67.888
				c3.404-6.001,6.866-12.171,10.386-18.51c5.933,19.753,16.789,51.315,33.827,85.064
				C143.354,168.207,133.357,175.918,125.512,185.723z M378.291,186.094c-24.593,9.225-46.285,24.457-63.258,44.339l-5.026-5.026
				c-15.71-15.71-34.227-27.631-55.031-35.439l-14.182-5.316c-15.019-5.632-28.809-13.764-41.003-24.175l-25.421-21.7
				c0.215-0.045,0.422-0.097,0.635-0.143c0.304-0.066,0.603-0.135,0.904-0.203c0.711-0.162,1.413-0.331,2.106-0.508
				c0.305-0.078,0.611-0.156,0.912-0.236c0.716-0.192,1.421-0.392,2.118-0.599c0.242-0.072,0.488-0.14,0.727-0.214
				c0.931-0.286,1.847-0.582,2.743-0.895c0.024-0.008,0.046-0.017,0.07-0.026c0.857-0.299,1.696-0.613,2.522-0.935
				c0.274-0.107,0.54-0.218,0.811-0.328c0.574-0.232,1.142-0.467,1.701-0.709c0.304-0.132,0.604-0.265,0.903-0.4
				c0.522-0.235,1.037-0.475,1.546-0.719c0.289-0.139,0.58-0.276,0.865-0.418c0.552-0.274,1.092-0.554,1.628-0.838
				c0.218-0.115,0.441-0.227,0.656-0.344c0.726-0.394,1.437-0.797,2.134-1.209c0.22-0.13,0.431-0.264,0.648-0.396
				c0.485-0.294,0.967-0.59,1.438-0.891c0.274-0.176,0.543-0.354,0.812-0.533c0.405-0.268,0.807-0.538,1.201-0.812
				c0.272-0.188,0.542-0.377,0.808-0.568c0.393-0.281,0.778-0.565,1.16-0.851c0.244-0.182,0.49-0.363,0.729-0.547
				c0.469-0.361,0.926-0.726,1.379-1.094c0.136-0.111,0.278-0.219,0.413-0.331c0.569-0.47,1.123-0.947,1.667-1.427
				c0.202-0.179,0.397-0.36,0.596-0.539c0.355-0.321,0.707-0.644,1.051-0.969c0.21-0.199,0.416-0.398,0.622-0.598
				c0.329-0.319,0.652-0.639,0.971-0.961c0.192-0.194,0.384-0.387,0.572-0.582c0.35-0.363,0.692-0.727,1.03-1.093
				c0.139-0.15,0.282-0.3,0.419-0.451c0.475-0.523,0.938-1.048,1.388-1.575c0.044-0.051,0.085-0.103,0.129-0.155
				c0.407-0.48,0.803-0.961,1.191-1.444c0.117-0.146,0.231-0.292,0.346-0.439c0.315-0.399,0.624-0.798,0.926-1.198
				c0.113-0.15,0.226-0.301,0.337-0.451c0.313-0.421,0.618-0.843,0.917-1.264c0.08-0.114,0.162-0.227,0.242-0.34
				c1.165-1.664,2.22-3.324,3.177-4.958c0.03-0.052,0.06-0.103,0.09-0.155c0.295-0.507,0.58-1.01,0.856-1.511
				c0.024-0.044,0.048-0.088,0.072-0.131c0.598-1.091,1.159-2.169,1.672-3.223c10.411,15.093,27.89,37.159,47.914,49.02
				c8.55,5.066,17.561,8.284,26.687,8.284c0.107,0,0.212-0.003,0.317-0.006h0.131c1.25-0.014,2.481-0.103,3.7-0.233
				c7.892-0.834,15.151-4.073,21.723-9.699c2.628-2.248,5.149-4.87,7.557-7.876c3.62,5.752,8.45,12.58,14.166,18.664
				c0.066,0.07,0.13,0.142,0.197,0.212c0.076,0.081,0.155,0.16,0.232,0.24c7.417,7.789,16.292,14.268,25.949,15.537
				c0.651,0.085,1.345,0.14,2.056,0.178c2.61,0.144,5.58-0.084,8.751-1.009c1.023-0.297,2.061-0.649,3.12-1.105
				c0.556,2.778,1.205,5.952,1.935,9.438L378.291,186.094z"/>
		</g>
	</g>
</g>
</svg>